<?xml version="1.0" encoding="UTF-8"?>
<svg id="Layer_1" data-name="Layer 1" xmlns="http://www.w3.org/2000/svg" viewBox="0 0 4107.64 1227.3">
  <defs>
    <style>
      .cls-1 {
        fill: #000007;
      }

      .cls-1, .cls-2, .cls-3 {
        stroke-width: 0px;
      }

      .cls-2 {
        fill: #fff;
      }

      .cls-3 {
        fill: #d34f20;
      }
    </style>
  </defs>
  <path class="cls-2" d="M3591.38,368.65c-20.71-32.96-51.49-60.53-91.76-81.79-74.66-39.41-180.71-58.55-324.3-58.55h-170.82c-133.73,0-230.74,64.49-279.02,179.15l43.44-179.15h-189.18l-65.65,286.77-98.04-218.76-98.04,218.76-65.65-286.77h-197.5c-295.03,0-339.08,142.5-339.08,227.46,0,113.94,73.4,167.2,126.97,206.1,39.99,29,62.62,46.71,62.62,72.95,0,52.11-82.07,63.06-150.89,63.06h-355.63v-4.67h343.28v-164.4h-168.46V228.31h-361.36v559.79l-27.98,8.02c-2.15.61-4.33,1.19-6.48,1.77V228.31h-370.54l-106.29,129.8v-129.8h-209.52c-295.03,0-339.08,142.5-339.08,227.46,0,113.94,73.4,167.2,126.97,206.1,39.99,29,62.62,46.71,62.62,72.95,0,52.11-82.07,63.06-150.89,63.06h-38.7v164.37h38.7c210.54,0,293.25-72.55,323.35-144.99v144.99h186.55v-270.05c100.12,195.8,221.8,284,388.08,284,38.01,0,77.87-4.95,115.27-14.3l7.95-1.98v2.32h542.18c295.03,0,339.08-142.5,339.08-227.43,0-113.97-73.4-167.24-126.97-206.1-39.99-29.04-62.62-46.71-62.62-72.96,0-52.14,82.07-63.09,150.89-63.09h38.69v-39.14l155.23,640.11h34.26l133.01-302.3,133.01,302.3h34.26l110.59-456.02c-2.01,20.03-3.04,40.88-3.04,62.58v362.04h186.55v-344.68h88.38v344.68h357.37v-232.96c90.02-11.5,158.36-34.4,208.18-69.58,60.64-42.82,91.38-102.33,91.38-176.86,0-42.86-10.65-81.25-31.36-114.21ZM514.45,651.16c-24.5-59.44-72.92-94.62-111.24-122.43-39.99-29.04-62.62-46.71-62.62-72.96,0-52.14,82.07-63.09,150.89-63.09h22.97v258.48ZM991.28,773.9c-42.48-34.46-90.87-100.08-146.87-222.58l-24.47-53.61,171.33-209.58v485.77ZM1089.08,810.2c-12.11,0-24.81-1.16-38.18-4.71h91.89c-18.39,3.1-36.55,4.71-53.71,4.71ZM2965.81,453.18h-60.23c17.64-33.34,40.37-48.28,60.23-55.01v55.01ZM3323.17,561.18v-156.66c73.94,14.02,111.38,40.3,111.38,78.35s-37.43,64.29-111.38,78.31Z"/>
  <g>
    <path class="cls-1" d="M301.9,455.76c0,106.69,189.59,109.98,189.59,279.04,0,125.57-109.15,188.77-300.38,188.77v-87c120.65,0,189.59-32.01,189.59-101.77,0-106.69-189.59-109.98-189.59-279.04,0-125.57,109.16-188.76,300.38-188.76v87c-120.64,0-189.59,32.01-189.59,101.77Z"/>
    <path class="cls-1" d="M553.15,267h109.16v199.43l163.32-199.43h132.96l-183.84,224.88,34.47,75.51c96.03,210.11,180.56,281.51,279.87,281.51,29.55,0,65.66-4.1,105.87-15.59v91.1c-36.11,9.03-73.04,13.13-105.87,13.13-166.61,0-283.97-98.49-384.1-327.47l-42.68-97.66v411.18h-109.16V267ZM1029.99,267h109.16v499.82h-109.16v-499.82Z"/>
    <path class="cls-1" d="M1250.98,267h109.16v569.58h343.28v87h-452.44V267ZM1534.95,267v400.51h168.47v87h-277.62v-487.51h109.16Z"/>
    <path class="cls-1" d="M1865.27,455.76c0,106.69,189.59,109.98,189.59,279.04,0,125.57-109.15,188.77-300.38,188.77v-87c120.65,0,189.59-32.01,189.59-101.77,0-106.69-189.59-109.98-189.59-279.04,0-125.57,109.16-188.76,300.38-188.76v87c-120.64,0-189.59,32.01-189.59,101.77Z"/>
    <path class="cls-1" d="M2221.54,267l84.53,369.32,109.98-245.4,109.98,245.4,84.53-369.32h109.16l-159.22,656.58-144.45-328.29-144.45,328.29-159.22-656.58h109.16Z"/>
    <path class="cls-1" d="M2838.72,578.87v344.7h-109.16v-323.36c0-207.64,97.67-333.21,274.94-333.21h109.16v656.58h-109.16v-344.7h-165.78ZM3004.51,354c-81.25,0-132.14,50.06-154.29,137.88h154.29v-137.88Z"/>
    <path class="cls-1" d="M3584.03,482.85c0,123.11-100.13,193.69-299.56,211.74v228.98h-109.16V267c271.66,0,408.72,72.22,408.72,215.85h0ZM3473.24,482.85c0-68.12-63.2-109.16-188.76-123.11v246.22c125.57-13.95,188.76-54.99,188.76-123.11Z"/>
  </g>
  <circle class="cls-3" cx="3804.35" cy="848.12" r="150.88"/>
</svg>