<?xml version="1.0" encoding="UTF-8"?>
<svg id="Layer_1" data-name="Layer 1" xmlns="http://www.w3.org/2000/svg" viewBox="0 0 4107.64 1227.3">
  <defs>
    <style>
      .cls-1 {
        fill: #fff;
      }

      .cls-1, .cls-2 {
        stroke-width: 0px;
      }

      .cls-2 {
        fill: #d34f20;
      }
    </style>
  </defs>
  <path class="cls-1" d="M2850.21,491.88h154.3v-137.88c-81.25,0-132.14,50.06-154.3,137.88ZM2965.81,453.18h-60.23c17.64-33.34,40.37-48.28,60.23-55v55ZM2850.21,491.88h154.3v-137.88c-81.25,0-132.14,50.06-154.3,137.88ZM2965.81,453.18h-60.23c17.64-33.34,40.37-48.28,60.23-55v55ZM2850.21,491.88h154.3v-137.88c-81.25,0-132.14,50.06-154.3,137.88ZM2965.81,453.18h-60.23c17.64-33.34,40.37-48.28,60.23-55v55ZM3284.47,359.74v246.22c125.57-13.95,188.77-54.99,188.77-123.11s-63.2-109.15-188.77-123.11ZM3323.18,561.18v-156.66c73.94,14.03,111.37,40.3,111.37,78.35s-37.43,64.29-111.37,78.31ZM3284.47,359.74v246.22c125.57-13.95,188.77-54.99,188.77-123.11s-63.2-109.15-188.77-123.11ZM3323.18,561.18v-156.66c73.94,14.03,111.37,40.3,111.37,78.35s-37.43,64.29-111.37,78.31ZM2850.21,491.88h154.3v-137.88c-81.25,0-132.14,50.06-154.3,137.88ZM2965.81,453.18h-60.23c17.64-33.34,40.37-48.28,60.23-55v55ZM3591.38,368.66c-20.71-32.96-51.49-60.54-91.75-81.79-74.66-39.42-180.72-58.56-324.31-58.56h-170.82c-133.72,0-230.74,64.49-279.02,179.15l43.44-179.15h-189.18l-65.65,286.77-98.04-218.76-98.03,218.76-65.65-286.77h-197.51c-295.02,0-339.08,142.5-339.08,227.46,0,113.94,73.4,167.21,126.97,206.11,40,29,62.62,46.71,62.62,72.95,0,52.11-82.07,63.06-150.89,63.06h-355.63v-4.67h343.28v-164.41h-168.47V228.31h-361.36v559.79l-27.98,8.02c-2.15.61-4.33,1.19-6.48,1.77V228.31h-370.54l-106.3,129.81v-129.81h-209.51c-295.03,0-339.08,142.5-339.08,227.46,0,113.94,73.4,167.21,126.97,206.11,39.99,29,62.62,46.71,62.62,72.95,0,52.11-82.07,63.06-150.9,63.06h-38.69v164.37h38.69c210.54,0,293.26-72.54,323.35-144.99v144.99h186.55v-270.05c100.12,195.8,221.8,284.01,388.08,284.01,38.02,0,77.87-4.95,115.27-14.3l7.95-1.98v2.32h542.18c295.03,0,339.08-142.5,339.08-227.43,0-113.97-73.4-167.23-126.97-206.1-40-29.04-62.62-46.72-62.62-72.96,0-52.13,82.07-63.09,150.89-63.09h38.7v-39.14l155.22,640.11h34.26l133.01-302.29,133.01,302.29h34.26l110.6-456.01c-2.02,20.03-3.04,40.88-3.04,62.58v362.04h186.55v-344.67h88.38v344.67h357.37v-232.96c90.01-11.5,158.36-34.39,208.18-69.57,60.64-42.83,91.38-102.34,91.38-176.86,0-42.86-10.64-81.25-31.36-114.21ZM1425.8,267h109.16v400.52h168.46v86.99h-277.62v-487.51ZM1029.99,267h109.16v499.82h-109.16v-499.82ZM1142.79,805.5c-18.39,3.11-36.54,4.71-53.71,4.71-12.11,0-24.8-1.16-38.18-4.71h91.89ZM191.1,923.58v-87c120.65,0,189.59-32.01,189.59-101.77,0-106.69-189.59-109.97-189.59-279.04,0-125.57,109.16-188.76,300.39-188.76v86.99c-120.65,0-189.59,32.01-189.59,101.77,0,106.69,189.59,109.98,189.59,279.04,0,125.58-109.16,188.77-300.39,188.77ZM514.45,651.16c-24.5-59.44-72.92-94.62-111.24-122.43-39.99-29.04-62.61-46.72-62.61-72.96,0-52.13,82.06-63.09,150.89-63.09h22.96v258.48ZM1194.96,924.4c-36.11,9.03-73.05,13.13-105.88,13.13-166.6,0-283.97-98.48-384.09-327.47l-42.68-97.66v411.18h-109.16V267h109.16v199.44l163.32-199.44h132.96l-183.84,224.88,34.47,75.51c96.02,210.1,180.56,281.51,279.86,281.51,29.55,0,65.66-4.11,105.88-15.6v91.1ZM991.29,288.13v485.77c-42.49-34.46-90.87-100.08-146.87-222.58l-24.47-53.61,171.34-209.58ZM1703.42,923.58h-452.44V267h109.16v569.58h343.28v87ZM2054.86,354c-120.64,0-189.58,32.01-189.58,101.77,0,106.69,189.58,109.98,189.58,279.04,0,125.58-109.15,188.77-300.38,188.77v-87c120.64,0,189.59-32.01,189.59-101.77,0-106.69-189.59-109.97-189.59-279.04,0-125.57,109.15-188.76,300.38-188.76v86.99ZM2560.5,923.58l-144.45-328.29-144.45,328.29-159.22-656.57h109.16l84.53,369.32,109.98-245.4,109.98,245.4,84.53-369.32h109.16l-159.22,656.57ZM3113.66,923.58h-109.15v-344.7h-165.79v344.7h-109.15v-323.36c0-207.65,97.67-333.21,274.94-333.21h109.15v656.57ZM3284.47,694.6v228.98h-109.15V267.01c271.65,0,408.71,72.22,408.72,215.84,0,123.11-100.13,193.69-299.57,211.75ZM3284.47,359.74v246.22c125.57-13.95,188.77-54.99,188.77-123.11s-63.2-109.15-188.77-123.11ZM3323.18,561.18v-156.66c73.94,14.03,111.37,40.3,111.37,78.35s-37.43,64.29-111.37,78.31ZM2850.21,491.88h154.3v-137.88c-81.25,0-132.14,50.06-154.3,137.88ZM2965.81,398.18v55h-60.23c17.64-33.34,40.37-48.28,60.23-55ZM2850.21,491.88h154.3v-137.88c-81.25,0-132.14,50.06-154.3,137.88ZM2965.81,453.18h-60.23c17.64-33.34,40.37-48.28,60.23-55v55ZM3284.47,359.74v246.22c125.57-13.95,188.77-54.99,188.77-123.11s-63.2-109.15-188.77-123.11ZM3323.18,561.18v-156.66c73.94,14.03,111.37,40.3,111.37,78.35s-37.43,64.29-111.37,78.31ZM3284.47,359.74v246.22c125.57-13.95,188.77-54.99,188.77-123.11s-63.2-109.15-188.77-123.11ZM3323.18,561.18v-156.66c73.94,14.03,111.37,40.3,111.37,78.35s-37.43,64.29-111.37,78.31ZM2850.21,491.88h154.3v-137.88c-81.25,0-132.14,50.06-154.3,137.88ZM2965.81,453.18h-60.23c17.64-33.34,40.37-48.28,60.23-55v55Z"/>
  <circle class="cls-2" cx="3804.35" cy="848.12" r="150.88"/>
</svg>